<svg width="110" height="110" viewBox="0 0 110 110" fill="none" xmlns="http://www.w3.org/2000/svg">
<g clip-path="url(#clip0_635_37396)">
<path d="M41.029 68.1001C39.8256 68.9447 38.4791 69.4995 37.0089 69.7579C35.4022 70.1488 33.6915 70.3442 31.8831 70.3442C26.653 70.3442 22.5354 68.7872 19.5171 65.6667C16.5704 62.5463 15.0938 58.2597 15.0938 52.8069C15.0938 47.3541 16.5704 43.0297 19.5171 39.8462C22.6655 36.6628 26.7896 35.0742 31.8831 35.0742C36.9113 35.0742 41.029 36.6691 44.249 39.8462C47.2672 43.0927 48.7698 47.4109 48.7698 52.8069C48.7698 55.1456 48.4706 57.289 47.8656 59.2368C47.2608 61.2478 46.324 62.975 45.0491 64.3997L48.8675 67.9045L46.955 69.7579C46.2849 70.4072 45.5825 70.6847 44.8409 70.5837C44.1058 70.4891 43.5008 70.2433 43.0325 69.8525L41.029 68.1001ZM36.0071 63.5172L32.3904 60.1068L33.5938 58.8397C34.1272 58.2534 34.8492 57.9005 35.7534 57.768C36.6576 57.6356 37.4122 57.768 38.0172 58.1588L40.0272 59.7159C40.4956 58.8712 40.8989 57.831 41.2306 56.5956C41.2958 56.0093 41.3803 55.4105 41.4844 54.7927C41.5819 54.1749 41.634 53.513 41.634 52.7943C41.634 49.157 40.7623 46.2699 39.0189 44.1202C37.2757 42.1093 34.8949 41.1007 31.8831 41.1007C28.7996 41.1007 26.4188 42.1093 24.7471 44.1202C23.0687 46.1311 22.2362 49.0246 22.2362 52.7943C22.2362 56.564 23.0752 59.4197 24.7471 61.3675C26.4188 63.3785 28.7996 64.387 31.8831 64.387C32.8913 64.387 33.6263 64.324 34.0947 64.1916C34.8298 64.0089 35.4673 63.7819 36.0071 63.5172Z" fill="url(#paint0_linear_635_37396)"/>
<path d="M59.0402 69.0328C57.453 69.1273 55.7357 69.1021 53.8884 68.9634C52.0409 68.8248 51.1172 67.6838 51.1172 65.5405V45.0215H53.7126C54.3372 45.0215 54.8901 45.2547 55.3714 45.7212C55.8528 46.1878 56.0934 46.7424 56.0934 47.398V50.5373H59.0468V51.5144C59.0468 52.2141 58.806 52.7816 58.3247 53.2228C57.8434 53.6641 57.2709 53.8847 56.5944 53.8847H56.087V64.2166C56.087 65.011 56.5684 65.4017 57.5246 65.4017H59.0402V69.0328Z" fill="url(#paint1_linear_635_37396)"/>
<path d="M72.7906 63.3097H76.3943C75.8674 65.2639 74.8591 66.7516 73.3695 67.7791C71.8799 68.8508 70.0065 69.3866 67.7493 69.3866C65.0106 69.3866 62.877 68.523 61.3418 66.802C59.8066 65.1252 59.0391 62.7298 59.0391 59.6157C59.0391 56.6402 59.7806 54.3078 61.2703 52.6373C62.8055 50.9164 64.9455 50.0527 67.6776 50.0527C70.5594 50.0527 72.7906 50.8912 74.3777 52.568C75.9129 54.289 76.6806 56.6844 76.6806 59.7543C76.6806 59.9435 76.6806 60.1011 76.6806 60.246C76.6806 60.3848 76.6806 60.4794 76.6806 60.5234C76.6806 60.7567 76.6545 60.9206 76.609 61.0151H64.152C64.1975 62.4587 64.5618 63.5303 65.2318 64.2238C65.8563 64.9676 66.793 65.3396 68.0419 65.3396C68.8551 65.3396 69.5575 65.1757 70.1301 64.8542C70.2731 64.8101 70.4032 64.7281 70.5268 64.6083C70.6439 64.4949 70.7805 64.3625 70.9236 64.2238C70.9691 64.0852 71.1513 63.896 71.4636 63.6628C71.7758 63.4232 72.2182 63.3097 72.7906 63.3097ZM64.152 57.8631H71.496C71.3985 56.6087 71.0667 55.6758 70.4879 55.0707C69.8633 54.4213 68.9722 54.0934 67.8208 54.0934C66.767 54.0934 65.9018 54.4213 65.2253 55.0707C64.5553 55.7263 64.1975 56.6529 64.152 57.8631Z" fill="url(#paint2_linear_635_37396)"/>
<path d="M90.8062 63.3097H94.4099C93.883 65.2639 92.8748 66.7516 91.3851 67.7791C89.8954 68.8508 88.022 69.3866 85.7648 69.3866C83.0262 69.3866 80.8926 68.523 79.3574 66.802C77.8222 65.1252 77.0547 62.7298 77.0547 59.6157C77.0547 56.6402 77.7962 54.3078 79.2859 52.6373C80.8211 50.9164 82.9611 50.0527 85.6933 50.0527C88.575 50.0527 90.8062 50.8912 92.3934 52.568C93.2585 53.5892 93.883 54.7807 94.2668 56.1297H89.2255C88.9847 55.6631 88.7441 55.3165 88.5034 55.0832C87.879 54.4339 86.9943 54.1061 85.8364 54.1061C84.776 54.1061 83.9175 54.4339 83.2408 55.0832C82.3757 56.0161 81.9464 57.548 81.9464 59.6913C81.9464 61.8346 82.3757 63.3476 83.2408 64.2301C83.8653 64.974 84.8021 65.3459 86.051 65.3459C86.8641 65.3459 87.5667 65.182 88.1391 64.8605C88.2823 64.8164 88.4123 64.7344 88.5359 64.6147C88.6529 64.5011 88.7896 64.3688 88.9328 64.2301C89.0303 64.0914 89.2189 63.9023 89.5116 63.6691C89.7979 63.4232 90.2272 63.3097 90.8062 63.3097Z" fill="url(#paint3_linear_635_37396)"/>
<path d="M4.87358 35.5293C4.87358 35.5293 -7.49886 56.25 7.18284 75.9243C7.18284 75.918 -2.34043 56.5904 4.87358 35.5293Z" fill="url(#paint4_linear_635_37396)"/>
<path d="M104.505 73.1867C104.505 73.1867 118.53 53.046 101.773 34.002C101.78 34.002 112.663 52.7307 104.505 73.1867Z" fill="url(#paint5_linear_635_37396)"/>
<path d="M99.5659 83.7901C99.5659 83.7901 87.987 99.1965 69.9357 98.0241C69.9357 98.0241 53.2244 98.5284 35.1992 89.5328L37.5279 83.582C37.5279 83.582 55.3581 92.9495 68.2249 93.1764C68.2249 93.1764 86.8422 96.2212 99.5659 83.7901Z" fill="url(#paint6_linear_635_37396)"/>
<path d="M90.1079 95.8063C90.1079 95.8063 75.849 107.859 54.929 104.619C54.929 104.619 33.6188 101.94 12.1719 84.5602L14.878 80.6582C14.878 80.6582 35.8499 96.2917 49.3348 99.0717C49.3282 99.078 68.5569 106.901 90.1079 95.8063Z" fill="url(#paint7_linear_635_37396)"/>
<path d="M74.9072 104.298C74.9072 104.298 63.3674 109.315 52.2309 108.345C52.2309 108.345 36.684 106.245 29.3984 101.379L30.5628 98.832C30.5628 98.832 44.2428 105.489 54.9304 106.485C54.9239 106.491 68.3696 106.85 74.9072 104.298Z" fill="url(#paint8_linear_635_37396)"/>
<path d="M59.1397 109.845C59.1397 109.845 36.6585 111.818 22.2891 101.719L23.6421 100.049C23.6421 100.049 33.0223 108.641 59.1397 109.845Z" fill="url(#paint9_linear_635_37396)"/>
<path d="M103.436 74.7695C103.436 74.7695 99.7344 89.2747 79.3674 90.8822C79.3674 90.8822 65.154 91.7647 46.9336 84.446L50.03 78.3124C50.03 78.3124 71.119 88.2471 89.5737 83.6579C89.5737 83.6516 96.6836 82.3782 103.436 74.7695Z" fill="url(#paint10_linear_635_37396)"/>
<path d="M44.6644 82.0762C46.1876 82.0762 47.4225 80.8795 47.4225 79.4033C47.4225 77.9271 46.1876 76.7305 44.6644 76.7305C43.141 76.7305 41.9062 77.9271 41.9062 79.4033C41.9062 80.8795 43.141 82.0762 44.6644 82.0762Z" fill="url(#paint11_linear_635_37396)"/>
<path d="M32.3323 87.9261C33.9201 87.9261 35.2074 86.6786 35.2074 85.1398C35.2074 83.6009 33.9201 82.3535 32.3323 82.3535C30.7443 82.3535 29.457 83.6009 29.457 85.1398C29.457 86.6786 30.7443 87.9261 32.3323 87.9261Z" fill="url(#paint12_linear_635_37396)"/>
<path d="M10.1421 83.0537C11.748 83.0537 13.0498 81.7921 13.0498 80.2358C13.0498 78.6795 11.748 77.418 10.1421 77.418C8.5362 77.418 7.23438 78.6795 7.23438 80.2358C7.23438 81.7921 8.5362 83.0537 10.1421 83.0537Z" fill="url(#paint13_linear_635_37396)"/>
<path d="M28.1083 100.301C28.8197 100.301 29.3964 99.7422 29.3964 99.0528C29.3964 98.3635 28.8197 97.8047 28.1083 97.8047C27.397 97.8047 26.8203 98.3635 26.8203 99.0528C26.8203 99.7422 27.397 100.301 28.1083 100.301Z" fill="url(#paint14_linear_635_37396)"/>
<path d="M21.3362 100.963C22.0223 100.963 22.5786 100.424 22.5786 99.7588C22.5786 99.0938 22.0223 98.5547 21.3362 98.5547C20.6499 98.5547 20.0938 99.0938 20.0938 99.7588C20.0938 100.424 20.6499 100.963 21.3362 100.963Z" fill="url(#paint15_linear_635_37396)"/>
<path d="M9.52344 25.5357C9.52344 25.5357 21.3495 10.3056 39.3813 11.7555C39.3813 11.7555 56.0989 11.5034 73.9746 20.77L71.5548 26.683C71.5548 26.683 53.8808 17.0507 41.0139 16.622C41.0075 16.622 22.4422 13.2999 9.52344 25.5357Z" fill="url(#paint16_linear_635_37396)"/>
<path d="M19.1719 13.6661C19.1719 13.6661 33.6194 1.83378 54.4872 5.38284C54.4872 5.38284 75.752 8.38346 96.9192 26.0847L94.1546 29.9426C94.1546 29.9426 73.4363 13.9939 59.997 11.0122C59.997 11.0122 40.8984 2.89283 19.1719 13.6661Z" fill="url(#paint17_linear_635_37396)"/>
<path d="M34.5117 5.4024C34.5117 5.4024 46.1361 0.561044 57.2531 1.69573C57.2531 1.69573 72.7674 4.02815 79.9684 9.00189L78.765 11.5297C78.765 11.5297 65.1891 4.66485 54.5275 3.50494C54.5275 3.51124 41.0882 2.9502 34.5117 5.4024Z" fill="url(#paint18_linear_635_37396)"/>
<path d="M50.3633 0.0943349C50.3633 0.0943349 72.8704 -1.53836 87.0773 8.78103L85.6982 10.4326C85.6982 10.4263 76.4612 1.6892 50.3633 0.0943349Z" fill="url(#paint19_linear_635_37396)"/>
<path d="M5.50391 34.5003C5.50391 34.5003 9.43942 20.0518 29.8259 18.7532C29.8259 18.7532 44.0523 18.0851 62.1556 25.6812L58.9617 31.7644C58.9617 31.7644 38.0352 21.508 19.5091 25.8199C19.5025 25.8199 12.3732 26.9924 5.50391 34.5003Z" fill="url(#paint20_linear_635_37396)"/>
<path d="M64.3441 33.4219C65.8673 33.4219 67.1022 32.2252 67.1022 30.749C67.1022 29.2728 65.8673 28.0762 64.3441 28.0762C62.8208 28.0762 61.5859 29.2728 61.5859 30.749C61.5859 32.2252 62.8208 33.4219 64.3441 33.4219Z" fill="url(#paint21_linear_635_37396)"/>
<path d="M76.7737 27.9828C78.3615 27.9828 79.6488 26.7352 79.6488 25.1965C79.6488 23.6576 78.3615 22.4102 76.7737 22.4102C75.1857 22.4102 73.8984 23.6576 73.8984 25.1965C73.8984 26.7352 75.1857 27.9828 76.7737 27.9828Z" fill="url(#paint22_linear_635_37396)"/>
<path d="M98.8765 33.2586C100.482 33.2586 101.784 31.9971 101.784 30.4408C101.784 28.8846 100.482 27.623 98.8765 27.623C97.2705 27.623 95.9688 28.8846 95.9688 30.4408C95.9688 31.9971 97.2705 33.2586 98.8765 33.2586Z" fill="url(#paint23_linear_635_37396)"/>
<path d="M81.2176 12.6018C81.9289 12.6018 82.5056 12.043 82.5056 11.3536C82.5056 10.6643 81.9289 10.1055 81.2176 10.1055C80.5064 10.1055 79.9297 10.6643 79.9297 11.3536C79.9297 12.043 80.5064 12.6018 81.2176 12.6018Z" fill="url(#paint24_linear_635_37396)"/>
<path d="M87.9924 11.9588C88.6786 11.9588 89.2349 11.4198 89.2349 10.7548C89.2349 10.0898 88.6786 9.55078 87.9924 9.55078C87.3063 9.55078 86.75 10.0898 86.75 10.7548C86.75 11.4198 87.3063 11.9588 87.9924 11.9588Z" fill="url(#paint25_linear_635_37396)"/>
</g>
<defs>
<linearGradient id="paint0_linear_635_37396" x1="34.3059" y1="-3.35603" x2="87.9388" y2="95.3049" gradientUnits="userSpaceOnUse">
<stop stop-color="#02D7F8"/>
<stop offset="1" stop-color="#0876FC"/>
</linearGradient>
<linearGradient id="paint1_linear_635_37396" x1="34.3049" y1="-3.35635" x2="87.9378" y2="95.3045" gradientUnits="userSpaceOnUse">
<stop stop-color="#02D7F8"/>
<stop offset="1" stop-color="#0876FC"/>
</linearGradient>
<linearGradient id="paint2_linear_635_37396" x1="34.3036" y1="-3.35554" x2="87.9365" y2="95.3054" gradientUnits="userSpaceOnUse">
<stop stop-color="#02D7F8"/>
<stop offset="1" stop-color="#0876FC"/>
</linearGradient>
<linearGradient id="paint3_linear_635_37396" x1="34.307" y1="-3.35554" x2="87.9399" y2="95.3054" gradientUnits="userSpaceOnUse">
<stop stop-color="#02D7F8"/>
<stop offset="1" stop-color="#0876FC"/>
</linearGradient>
<linearGradient id="paint4_linear_635_37396" x1="34.3052" y1="-3.35499" x2="87.938" y2="95.3059" gradientUnits="userSpaceOnUse">
<stop stop-color="#02D7F8"/>
<stop offset="1" stop-color="#0876FC"/>
</linearGradient>
<linearGradient id="paint5_linear_635_37396" x1="34.3069" y1="-3.35663" x2="87.9397" y2="95.3043" gradientUnits="userSpaceOnUse">
<stop stop-color="#02D7F8"/>
<stop offset="1" stop-color="#0876FC"/>
</linearGradient>
<linearGradient id="paint6_linear_635_37396" x1="34.3045" y1="-3.35647" x2="87.9374" y2="95.3044" gradientUnits="userSpaceOnUse">
<stop stop-color="#02D7F8"/>
<stop offset="1" stop-color="#0876FC"/>
</linearGradient>
<linearGradient id="paint7_linear_635_37396" x1="34.3048" y1="-3.35508" x2="87.9376" y2="95.3058" gradientUnits="userSpaceOnUse">
<stop stop-color="#02D7F8"/>
<stop offset="1" stop-color="#0876FC"/>
</linearGradient>
<linearGradient id="paint8_linear_635_37396" x1="34.3064" y1="-3.35527" x2="87.9393" y2="95.3057" gradientUnits="userSpaceOnUse">
<stop stop-color="#02D7F8"/>
<stop offset="1" stop-color="#0876FC"/>
</linearGradient>
<linearGradient id="paint9_linear_635_37396" x1="34.3068" y1="-3.35516" x2="87.9397" y2="95.3057" gradientUnits="userSpaceOnUse">
<stop stop-color="#02D7F8"/>
<stop offset="1" stop-color="#0876FC"/>
</linearGradient>
<linearGradient id="paint10_linear_635_37396" x1="34.3041" y1="-3.35601" x2="87.9369" y2="95.3049" gradientUnits="userSpaceOnUse">
<stop stop-color="#02D7F8"/>
<stop offset="1" stop-color="#0876FC"/>
</linearGradient>
<linearGradient id="paint11_linear_635_37396" x1="34.305" y1="-3.3556" x2="87.9379" y2="95.3053" gradientUnits="userSpaceOnUse">
<stop stop-color="#02D7F8"/>
<stop offset="1" stop-color="#0876FC"/>
</linearGradient>
<linearGradient id="paint12_linear_635_37396" x1="34.3064" y1="-3.35555" x2="87.9392" y2="95.3053" gradientUnits="userSpaceOnUse">
<stop stop-color="#02D7F8"/>
<stop offset="1" stop-color="#0876FC"/>
</linearGradient>
<linearGradient id="paint13_linear_635_37396" x1="34.3046" y1="-3.35517" x2="87.9375" y2="95.3058" gradientUnits="userSpaceOnUse">
<stop stop-color="#02D7F8"/>
<stop offset="1" stop-color="#0876FC"/>
</linearGradient>
<linearGradient id="paint14_linear_635_37396" x1="34.3042" y1="-3.35518" x2="87.9369" y2="95.3057" gradientUnits="userSpaceOnUse">
<stop stop-color="#02D7F8"/>
<stop offset="1" stop-color="#0876FC"/>
</linearGradient>
<linearGradient id="paint15_linear_635_37396" x1="34.3037" y1="-3.35542" x2="87.9367" y2="95.3056" gradientUnits="userSpaceOnUse">
<stop stop-color="#02D7F8"/>
<stop offset="1" stop-color="#0876FC"/>
</linearGradient>
<linearGradient id="paint16_linear_635_37396" x1="34.3038" y1="-3.35684" x2="87.9366" y2="95.3041" gradientUnits="userSpaceOnUse">
<stop stop-color="#02D7F8"/>
<stop offset="1" stop-color="#0876FC"/>
</linearGradient>
<linearGradient id="paint17_linear_635_37396" x1="34.3053" y1="-3.35627" x2="87.9381" y2="95.3046" gradientUnits="userSpaceOnUse">
<stop stop-color="#02D7F8"/>
<stop offset="1" stop-color="#0876FC"/>
</linearGradient>
<linearGradient id="paint18_linear_635_37396" x1="34.3066" y1="-3.35572" x2="87.9394" y2="95.3052" gradientUnits="userSpaceOnUse">
<stop stop-color="#02D7F8"/>
<stop offset="1" stop-color="#0876FC"/>
</linearGradient>
<linearGradient id="paint19_linear_635_37396" x1="34.3055" y1="-3.35593" x2="87.9383" y2="95.305" gradientUnits="userSpaceOnUse">
<stop stop-color="#02D7F8"/>
<stop offset="1" stop-color="#0876FC"/>
</linearGradient>
<linearGradient id="paint20_linear_635_37396" x1="34.3043" y1="-3.35646" x2="87.9371" y2="95.3044" gradientUnits="userSpaceOnUse">
<stop stop-color="#02D7F8"/>
<stop offset="1" stop-color="#0876FC"/>
</linearGradient>
<linearGradient id="paint21_linear_635_37396" x1="34.307" y1="-3.35685" x2="87.9398" y2="95.3041" gradientUnits="userSpaceOnUse">
<stop stop-color="#02D7F8"/>
<stop offset="1" stop-color="#0876FC"/>
</linearGradient>
<linearGradient id="paint22_linear_635_37396" x1="34.3057" y1="-3.35567" x2="87.9386" y2="95.3052" gradientUnits="userSpaceOnUse">
<stop stop-color="#02D7F8"/>
<stop offset="1" stop-color="#0876FC"/>
</linearGradient>
<linearGradient id="paint23_linear_635_37396" x1="34.3045" y1="-3.35596" x2="87.9374" y2="95.305" gradientUnits="userSpaceOnUse">
<stop stop-color="#02D7F8"/>
<stop offset="1" stop-color="#0876FC"/>
</linearGradient>
<linearGradient id="paint24_linear_635_37396" x1="34.3068" y1="-3.3553" x2="87.9397" y2="95.3056" gradientUnits="userSpaceOnUse">
<stop stop-color="#02D7F8"/>
<stop offset="1" stop-color="#0876FC"/>
</linearGradient>
<linearGradient id="paint25_linear_635_37396" x1="34.3034" y1="-3.35506" x2="87.9363" y2="95.3058" gradientUnits="userSpaceOnUse">
<stop stop-color="#02D7F8"/>
<stop offset="1" stop-color="#0876FC"/>
</linearGradient>
<clipPath id="clip0_635_37396">
<rect width="110" height="110" fill="white"/>
</clipPath>
</defs>
</svg>
