<svg width="18" height="18" viewBox="0 0 18 18" fill="none" xmlns="http://www.w3.org/2000/svg">
<path d="M15 9C15 12.3137 12.3137 15 9 15C5.68629 15 3 12.3137 3 9C3 5.68629 5.68629 3 9 3C12.3137 3 15 5.68629 15 9Z" fill="#4C6FFF"/>
<path d="M9.75 0.75C9.75 1.16421 9.41421 1.5 9 1.5C8.58579 1.5 8.25 1.16421 8.25 0.75C8.25 0.335786 8.58579 0 9 0C9.41421 0 9.75 0.335786 9.75 0.75Z" fill="#4C6FFF"/>
<path d="M9.75 17.25C9.75 17.6642 9.41421 18 9 18C8.58579 18 8.25 17.6642 8.25 17.25C8.25 16.8358 8.58579 16.5 9 16.5C9.41421 16.5 9.75 16.8358 9.75 17.25Z" fill="#4C6FFF"/>
<path d="M17.25 9.75C16.8358 9.75 16.5 9.41421 16.5 9C16.5 8.58579 16.8358 8.25 17.25 8.25C17.6642 8.25 18 8.58579 18 9C18 9.41421 17.6642 9.75 17.25 9.75Z" fill="#4C6FFF"/>
<path d="M0.75 9.75C0.335786 9.75 -1.81059e-08 9.41421 0 9C1.81059e-08 8.58579 0.335786 8.25 0.75 8.25C1.16421 8.25 1.5 8.58579 1.5 9C1.5 9.41421 1.16421 9.75 0.75 9.75Z" fill="#4C6FFF"/>
<path d="M15.364 3.6967C15.0711 3.9896 14.5962 3.9896 14.3033 3.6967C14.0104 3.40381 14.0104 2.92894 14.3033 2.63604C14.5962 2.34315 15.0711 2.34315 15.364 2.63604C15.6568 2.92894 15.6568 3.40381 15.364 3.6967Z" fill="#4C6FFF"/>
<path d="M3.69669 15.364C3.4038 15.6569 2.92893 15.6569 2.63603 15.364C2.34314 15.0711 2.34314 14.5962 2.63603 14.3033C2.92893 14.0104 3.4038 14.0104 3.69669 14.3033C3.98959 14.5962 3.98959 15.0711 3.69669 15.364Z" fill="#4C6FFF"/>
<path d="M14.3033 15.3639C14.0104 15.071 14.0104 14.5961 14.3033 14.3032C14.5962 14.0103 15.0711 14.0103 15.364 14.3032C15.6568 14.5961 15.6568 15.071 15.364 15.3639C15.0711 15.6568 14.5962 15.6568 14.3033 15.3639Z" fill="#4C6FFF"/>
<path d="M2.63604 3.69663C2.34314 3.40373 2.34314 2.92886 2.63604 2.63596C2.92893 2.34307 3.4038 2.34307 3.6967 2.63597C3.98959 2.92886 3.98959 3.40373 3.6967 3.69663C3.4038 3.98952 2.92893 3.98952 2.63604 3.69663Z" fill="#4C6FFF"/>
</svg>
