<svg width="125" height="36" viewBox="0 0 125 36" fill="none" xmlns="http://www.w3.org/2000/svg">
<rect x="0.605469" width="69.2308" height="36" rx="6.92308" fill="#4C6FFF"/>
<path d="M9.27876 28.3848V8.2449H13.5368V16.5546H22.1809V8.2449H26.4291V28.3848H22.1809V20.0653H13.5368V28.3848H9.27876ZM29.8611 28.3848V13.2799H34.0504V28.3848H29.8611ZM31.9656 11.3328C31.3428 11.3328 30.8085 11.1262 30.3627 10.7132C29.9234 10.2936 29.7038 9.79211 29.7038 9.20863C29.7038 8.6317 29.9234 8.13673 30.3627 7.72371C30.8085 7.30412 31.3428 7.09433 31.9656 7.09433C32.5884 7.09433 33.1195 7.30412 33.5587 7.72371C34.0045 8.13673 34.2274 8.6317 34.2274 9.20863C34.2274 9.79211 34.0045 10.2936 33.5587 10.7132C33.1195 11.1262 32.5884 11.3328 31.9656 11.3328ZM37.4062 28.3848V13.2799H41.4676V15.9154H41.625C41.9003 14.9779 42.3625 14.2698 43.0116 13.7912C43.6606 13.3061 44.408 13.0635 45.2537 13.0635C45.4635 13.0635 45.6897 13.0766 45.9322 13.1029C46.1748 13.1291 46.3879 13.1651 46.5714 13.211V16.9283C46.3748 16.8692 46.1027 16.8168 45.7552 16.7709C45.4077 16.725 45.0898 16.7021 44.8013 16.7021C44.1851 16.7021 43.6344 16.8365 43.1492 17.1053C42.6706 17.3675 42.2904 17.7346 42.0085 18.2067C41.7331 18.6787 41.5955 19.2228 41.5955 19.8391V28.3848H37.4062ZM54.918 28.6798C53.3642 28.6798 52.0268 28.3651 50.9057 27.7357C49.7912 27.0998 48.9324 26.2016 48.3292 25.0412C47.7261 23.8743 47.4245 22.4942 47.4245 20.9012C47.4245 19.3474 47.7261 17.9838 48.3292 16.8102C48.9324 15.6367 49.7814 14.7222 50.8762 14.0666C51.9776 13.411 53.2691 13.0832 54.7508 13.0832C55.7473 13.0832 56.675 13.2438 57.5338 13.5651C58.3992 13.8797 59.1531 14.355 59.7956 14.991C60.4446 15.6269 60.9494 16.4267 61.31 17.3904C61.6706 18.3476 61.8509 19.4687 61.8509 20.7536V21.9042H49.0963V19.3081H57.9075C57.9075 18.7049 57.7764 18.1706 57.5141 17.7051C57.2519 17.2397 56.888 16.8758 56.4226 16.6136C55.9636 16.3448 55.4293 16.2104 54.8196 16.2104C54.1837 16.2104 53.6199 16.3579 53.1282 16.6529C52.6431 16.9414 52.2628 17.3314 51.9875 17.8231C51.7121 18.3083 51.5712 18.8491 51.5646 19.4457V21.914C51.5646 22.6614 51.7023 23.3072 51.9776 23.8513C52.2595 24.3955 52.6562 24.8151 53.1675 25.1101C53.6789 25.4051 54.2853 25.5526 54.9868 25.5526C55.4523 25.5526 55.8784 25.487 56.2652 25.3559C56.652 25.2248 56.9831 25.0281 57.2584 24.7659C57.5338 24.5036 57.7436 24.1824 57.8878 23.8022L61.7624 24.0578C61.5657 24.9888 61.1625 25.8017 60.5528 26.4967C59.9497 27.185 59.1695 27.7226 58.2123 28.1094C57.2617 28.4897 56.1636 28.6798 54.918 28.6798Z" fill="white"/>
<path d="M75.662 27.1533V12.0484H79.6546V14.7134H79.8316C80.1463 13.8284 80.6707 13.1302 81.405 12.6188C82.1393 12.1074 83.0178 11.8517 84.0405 11.8517C85.0763 11.8517 85.9581 12.1107 86.6858 12.6286C87.4135 13.14 87.8987 13.8349 88.1412 14.7134H88.2986C88.6067 13.848 89.164 13.1564 89.9704 12.6385C90.7833 12.114 91.7437 11.8517 92.8517 11.8517C94.2612 11.8517 95.4052 12.3008 96.2837 13.199C97.1688 14.0906 97.6113 15.3559 97.6113 16.9949V27.1533H93.4319V17.8209C93.4319 16.9818 93.209 16.3524 92.7632 15.9328C92.3174 15.5132 91.7601 15.3035 91.0914 15.3035C90.3309 15.3035 89.7376 15.546 89.3115 16.0312C88.8853 16.5097 88.6723 17.1424 88.6723 17.9291V27.1533H84.6109V17.7324C84.6109 16.9916 84.3978 16.4016 83.9717 15.9623C83.5521 15.5231 82.9981 15.3035 82.3097 15.3035C81.8443 15.3035 81.4247 15.4215 81.051 15.6575C80.6839 15.8869 80.3921 16.2114 80.1758 16.631C79.9594 17.0441 79.8512 17.5292 79.8512 18.0864V27.1533H75.662ZM107.804 27.4483C106.25 27.4483 104.913 27.1337 103.792 26.5043C102.677 25.8684 101.819 24.9702 101.215 23.8098C100.612 22.6428 100.311 21.2628 100.311 19.6697C100.311 18.116 100.612 16.7523 101.215 15.5788C101.819 14.4053 102.668 13.4907 103.762 12.8351C104.864 12.1795 106.155 11.8517 107.637 11.8517C108.633 11.8517 109.561 12.0124 110.42 12.3336C111.285 12.6483 112.039 13.1236 112.682 13.7595C113.331 14.3955 113.836 15.1953 114.196 16.159C114.557 17.1162 114.737 18.2372 114.737 19.5222V20.6728H101.982V18.0766H110.794C110.794 17.4735 110.663 16.9392 110.4 16.4737C110.138 16.0082 109.774 15.6444 109.309 15.3821C108.85 15.1133 108.316 14.9789 107.706 14.9789C107.07 14.9789 106.506 15.1264 106.014 15.4215C105.529 15.7099 105.149 16.1 104.874 16.5917C104.598 17.0768 104.457 17.6177 104.451 18.2143V20.6826C104.451 21.43 104.588 22.0757 104.864 22.6199C105.146 23.164 105.542 23.5836 106.054 23.8786C106.565 24.1736 107.172 24.3212 107.873 24.3212C108.338 24.3212 108.765 24.2556 109.151 24.1245C109.538 23.9934 109.869 23.7967 110.145 23.5344C110.42 23.2722 110.63 22.951 110.774 22.5707L114.649 22.8264C114.452 23.7573 114.049 24.5703 113.439 25.2652C112.836 25.9536 112.056 26.4912 111.099 26.878C110.148 27.2582 109.05 27.4483 107.804 27.4483ZM119.92 27.409C119.271 27.409 118.713 27.1795 118.248 26.7206C117.789 26.2552 117.559 25.6979 117.559 25.0489C117.559 24.4064 117.789 23.8557 118.248 23.3968C118.713 22.9378 119.271 22.7084 119.92 22.7084C120.549 22.7084 121.1 22.9378 121.572 23.3968C122.044 23.8557 122.28 24.4064 122.28 25.0489C122.28 25.4816 122.168 25.8782 121.945 26.2388C121.729 26.5928 121.444 26.878 121.09 27.0943C120.736 27.3041 120.346 27.409 119.92 27.409Z" fill="#98A2B3"/>
</svg>
