<svg width="26" height="26" viewBox="0 0 26 26" fill="none" xmlns="http://www.w3.org/2000/svg">
<path d="M26 19.4983C26 20.2644 25.6956 20.9992 25.1539 21.541C24.6121 22.0828 23.8773 22.3872 23.1111 22.3872H2.88889C2.12271 22.3872 1.38791 22.0828 0.846136 21.541C0.304364 20.9992 0 20.2644 0 19.4983V6.49826C0 5.73208 0.304364 4.99728 0.846136 4.45551C1.38791 3.91374 2.12271 3.60938 2.88889 3.60938H23.1111C23.8773 3.60938 24.6121 3.91374 25.1539 4.45551C25.6956 4.99728 26 5.73208 26 6.49826V19.4983Z" fill="#006A4D"/>
<path d="M11.5556 17.697C14.3477 17.697 16.6111 15.4336 16.6111 12.6415C16.6111 9.84939 14.3477 7.58594 11.5556 7.58594C8.76345 7.58594 6.5 9.84939 6.5 12.6415C6.5 15.4336 8.76345 17.697 11.5556 17.697Z" fill="#F42A41"/>
</svg>
