<svg width="138" height="138" viewBox="0 0 138 138" fill="none" xmlns="http://www.w3.org/2000/svg">
<g clip-path="url(#clip0_632_37018)">
<path d="M51.4718 85.4344C49.962 86.4941 48.2728 87.1901 46.4284 87.5142C44.4127 88.0046 42.2665 88.2498 39.9978 88.2498C33.4364 88.2498 28.2707 86.2964 24.4841 82.3817C20.7873 78.4669 18.9348 73.0893 18.9348 66.2484C18.9348 59.4076 20.7873 53.9825 24.4841 49.9886C28.4339 45.9948 33.6078 44.002 39.9978 44.002C46.3059 44.002 51.4718 46.0028 55.5114 49.9886C59.2979 54.0615 61.183 59.4788 61.183 66.2484C61.183 69.1825 60.8076 71.8714 60.0486 74.315C59.2898 76.8378 58.1146 79.0048 56.5152 80.7921L61.3055 85.1893L58.9062 87.5142C58.0656 88.3288 57.1843 88.6769 56.254 88.5502C55.3318 88.4316 54.5728 88.1231 53.9853 87.6329L51.4718 85.4344ZM45.1715 79.685L40.6343 75.4064L42.144 73.8169C42.8131 73.0813 43.7189 72.6385 44.8533 72.4724C45.9876 72.3063 46.9343 72.4724 47.6933 72.9626L50.2149 74.916C50.8026 73.8564 51.3086 72.5514 51.7247 71.0015C51.8064 70.2659 51.9125 69.5147 52.0431 68.7397C52.1654 67.9646 52.2308 67.1342 52.2308 66.2325C52.2308 61.6694 51.1371 58.0474 48.95 55.3506C46.763 52.8277 43.7762 51.5625 39.9978 51.5625C36.1294 51.5625 33.1426 52.8277 31.0453 55.3506C28.9398 57.8734 27.8953 61.5033 27.8953 66.2325C27.8953 70.9618 28.9479 74.5445 31.0453 76.9881C33.1426 79.5109 36.1294 80.7762 39.9978 80.7762C41.2627 80.7762 42.1847 80.6972 42.7724 80.5311C43.6946 80.3018 44.4943 80.017 45.1715 79.685Z" fill="url(#paint0_linear_632_37018)"/>
<path d="M74.0689 86.6058C72.0777 86.7243 69.9232 86.6927 67.6057 86.5186C65.288 86.3448 64.1291 84.9134 64.1291 82.2244V56.4824H67.3852C68.1687 56.4824 68.8624 56.775 69.4663 57.3603C70.0702 57.9456 70.3721 58.6414 70.3721 59.4639V63.4023H74.0772V64.628C74.0772 65.5059 73.7751 66.2178 73.1712 66.7714C72.5675 67.3249 71.8492 67.6018 71.0005 67.6018H70.364V80.5636C70.364 81.5601 70.9679 82.0504 72.1674 82.0504H74.0689V86.6058Z" fill="url(#paint1_linear_632_37018)"/>
<path d="M91.321 79.4244H95.842C95.181 81.8761 93.9161 83.7424 92.0472 85.0315C90.1785 86.376 87.8282 87.0482 84.9965 87.0482C81.5606 87.0482 78.8839 85.9647 76.958 83.8057C75.032 81.7021 74.0691 78.697 74.0691 74.7902C74.0691 71.0573 74.9994 68.1312 76.8682 66.0355C78.7942 63.8764 81.479 62.793 84.9066 62.793C88.5218 62.793 91.321 63.8449 93.3122 65.9485C95.2381 68.1075 96.2012 71.1126 96.2012 74.9641C96.2012 75.2014 96.2012 75.3991 96.2012 75.5809C96.2012 75.755 96.2012 75.8736 96.2012 75.9288C96.2012 76.2216 96.1684 76.4272 96.1113 76.5457H80.4835C80.5406 78.3568 80.9976 79.7013 81.8382 80.5712C82.6216 81.5044 83.7967 81.971 85.3635 81.971C86.3837 81.971 87.265 81.7654 87.9831 81.3621C88.1627 81.3067 88.3259 81.2039 88.481 81.0536C88.6279 80.9113 88.7992 80.7452 88.9788 80.5712C89.0359 80.3973 89.2645 80.1599 89.6562 79.8674C90.0479 79.5669 90.6029 79.4244 91.321 79.4244ZM80.4835 72.5915H89.6969C89.5746 71.0178 89.1584 69.8474 88.4321 69.0882C87.6486 68.2735 86.5307 67.8622 85.0861 67.8622C83.7641 67.8622 82.6787 68.2735 81.83 69.0882C80.9894 69.9107 80.5406 71.0731 80.4835 72.5915Z" fill="url(#paint2_linear_632_37018)"/>
<path d="M113.918 79.4244H118.439C117.778 81.8761 116.513 83.7424 114.644 85.0315C112.775 86.376 110.425 87.0482 107.593 87.0482C104.158 87.0482 101.481 85.9647 99.5551 83.8057C97.6291 81.7021 96.6662 78.697 96.6662 74.7902C96.6662 71.0573 97.5965 68.1312 99.4654 66.0355C101.391 63.8764 104.076 62.793 107.504 62.793C111.119 62.793 113.918 63.8449 115.909 65.9485C116.995 67.2297 117.778 68.7244 118.26 70.4168H111.935C111.633 69.8315 111.331 69.3966 111.029 69.1039C110.246 68.2893 109.136 67.8781 107.683 67.8781C106.353 67.8781 105.276 68.2893 104.427 69.1039C103.342 70.2743 102.803 72.1961 102.803 74.885C102.803 77.5738 103.342 79.472 104.427 80.5791C105.211 81.5123 106.386 81.9789 107.953 81.9789C108.973 81.9789 109.854 81.7733 110.572 81.37C110.752 81.3146 110.915 81.2118 111.07 81.0616C111.217 80.9191 111.388 80.7532 111.568 80.5791C111.69 80.4051 111.927 80.1679 112.294 79.8753C112.653 79.5669 113.192 79.4244 113.918 79.4244Z" fill="url(#paint3_linear_632_37018)"/>
<path d="M6.11412 44.5723C6.11412 44.5723 -9.40767 70.5673 9.01121 95.2497C9.01121 95.2417 -2.93618 70.9944 6.11412 44.5723Z" fill="url(#paint4_linear_632_37018)"/>
<path d="M131.105 91.8173C131.105 91.8173 148.699 66.5498 127.677 42.6582C127.685 42.6582 141.338 66.1543 131.105 91.8173Z" fill="url(#paint5_linear_632_37018)"/>
<path d="M124.911 105.118C124.911 105.118 110.384 124.447 87.7383 122.976C87.7383 122.976 66.7732 123.608 44.1598 112.323L47.0813 104.857C47.0813 104.857 69.45 116.609 85.5921 116.894C85.5921 116.894 108.948 120.714 124.911 105.118Z" fill="url(#paint6_linear_632_37018)"/>
<path d="M113.045 120.191C113.045 120.191 95.1565 135.312 68.9113 131.248C68.9113 131.248 42.1768 127.886 15.2706 106.083L18.6655 101.188C18.6655 101.188 44.9758 120.8 61.8932 124.288C61.8849 124.296 86.0082 134.11 113.045 120.191Z" fill="url(#paint7_linear_632_37018)"/>
<path d="M93.973 130.845C93.973 130.845 79.4958 137.14 65.5245 135.922C65.5245 135.922 46.0202 133.289 36.8802 127.183L38.3409 123.988C38.3409 123.988 55.5031 132.34 68.9112 133.589C68.9031 133.597 85.7713 134.048 93.973 130.845Z" fill="url(#paint8_linear_632_37018)"/>
<path d="M74.1914 137.805C74.1914 137.805 45.9876 140.281 27.9605 127.611L29.6579 125.516C29.6579 125.516 41.4259 136.295 74.1914 137.805Z" fill="url(#paint9_linear_632_37018)"/>
<path d="M129.766 93.8027C129.766 93.8027 125.123 112 99.5713 114.017C99.5713 114.017 81.74 115.124 58.8817 105.942L62.7662 98.2474C62.7662 98.2474 89.2234 110.711 112.376 104.954C112.376 104.946 121.295 103.348 129.766 93.8027Z" fill="url(#paint10_linear_632_37018)"/>
<path d="M56.0337 102.968C57.9446 102.968 59.4939 101.467 59.4939 99.6149C59.4939 97.763 57.9446 96.2617 56.0337 96.2617C54.1226 96.2617 52.5735 97.763 52.5735 99.6149C52.5735 101.467 54.1226 102.968 56.0337 102.968Z" fill="url(#paint11_linear_632_37018)"/>
<path d="M40.5608 110.307C42.5528 110.307 44.1678 108.742 44.1678 106.812C44.1678 104.881 42.5528 103.316 40.5608 103.316C38.5686 103.316 36.9536 104.881 36.9536 106.812C36.9536 108.742 38.5686 110.307 40.5608 110.307Z" fill="url(#paint12_linear_632_37018)"/>
<path d="M12.7243 104.193C14.739 104.193 16.3722 102.611 16.3722 100.658C16.3722 98.7057 14.739 97.123 12.7243 97.123C10.7097 97.123 9.07648 98.7057 9.07648 100.658C9.07648 102.611 10.7097 104.193 12.7243 104.193Z" fill="url(#paint13_linear_632_37018)"/>
<path d="M35.2643 125.831C36.1569 125.831 36.8803 125.13 36.8803 124.265C36.8803 123.4 36.1569 122.699 35.2643 122.699C34.372 122.699 33.6485 123.4 33.6485 124.265C33.6485 125.13 34.372 125.831 35.2643 125.831Z" fill="url(#paint14_linear_632_37018)"/>
<path d="M26.7691 126.662C27.6298 126.662 28.3278 125.985 28.3278 125.151C28.3278 124.317 27.6298 123.641 26.7691 123.641C25.9081 123.641 25.2104 124.317 25.2104 125.151C25.2104 125.985 25.9081 126.662 26.7691 126.662Z" fill="url(#paint15_linear_632_37018)"/>
<path d="M11.9493 32.0369C11.9493 32.0369 26.7856 12.9301 49.4073 14.749C49.4073 14.749 70.3804 14.4327 92.8062 26.0581L89.7704 33.4763C89.7704 33.4763 67.5976 21.3921 51.4555 20.8543C51.4474 20.8543 28.1565 16.6866 11.9493 32.0369Z" fill="url(#paint16_linear_632_37018)"/>
<path d="M24.0518 17.1448C24.0518 17.1448 42.1769 2.30059 68.3566 6.75306C68.3566 6.75306 95.0342 10.5175 121.589 32.7244L118.121 37.5644C118.121 37.5644 92.129 17.556 75.2688 13.8153C75.2688 13.8153 51.3087 3.62922 24.0518 17.1448Z" fill="url(#paint17_linear_632_37018)"/>
<path d="M43.2947 6.77649C43.2947 6.77649 57.8781 0.70279 71.8249 2.1263C71.8249 2.1263 91.2882 5.05244 100.322 11.2922L98.8125 14.4635C98.8125 14.4635 81.7809 5.8512 68.4054 4.39604C68.4054 4.40394 51.5452 3.70009 43.2947 6.77649Z" fill="url(#paint18_linear_632_37018)"/>
<path d="M63.1826 0.118347C63.1826 0.118347 91.4188 -1.92995 109.242 11.0162L107.512 13.0882C107.512 13.0803 95.9236 2.11918 63.1826 0.118347Z" fill="url(#paint19_linear_632_37018)"/>
<path d="M6.90599 43.282C6.90599 43.282 11.8433 25.1557 37.4191 23.5266C37.4191 23.5266 55.2668 22.6882 77.9781 32.218L73.9713 39.8497C73.9713 39.8497 47.718 26.9826 24.4762 32.392C24.4679 32.392 15.5238 33.863 6.90599 43.282Z" fill="url(#paint20_linear_632_37018)"/>
<path d="M80.7202 41.9311C82.6311 41.9311 84.1803 40.4298 84.1803 38.5778C84.1803 36.7259 82.6311 35.2246 80.7202 35.2246C78.8092 35.2246 77.26 36.7259 77.26 38.5778C77.26 40.4298 78.8092 41.9311 80.7202 41.9311Z" fill="url(#paint21_linear_632_37018)"/>
<path d="M96.3154 35.1044C98.3074 35.1044 99.9223 33.5393 99.9223 31.6088C99.9223 29.6782 98.3074 28.1133 96.3154 28.1133C94.3232 28.1133 92.7082 29.6782 92.7082 31.6088C92.7082 33.5393 94.3232 35.1044 96.3154 35.1044Z" fill="url(#paint22_linear_632_37018)"/>
<path d="M124.046 41.7244C126.06 41.7244 127.694 40.1417 127.694 38.1893C127.694 36.237 126.06 34.6543 124.046 34.6543C122.031 34.6543 120.398 36.237 120.398 38.1893C120.398 40.1417 122.031 41.7244 124.046 41.7244Z" fill="url(#paint23_linear_632_37018)"/>
<path d="M101.889 15.8095C102.782 15.8095 103.505 15.1084 103.505 14.2436C103.505 13.3788 102.782 12.6777 101.889 12.6777C100.997 12.6777 100.273 13.3788 100.273 14.2436C100.273 15.1084 100.997 15.8095 101.889 15.8095Z" fill="url(#paint24_linear_632_37018)"/>
<path d="M110.393 15.0015C111.254 15.0015 111.951 14.3252 111.951 13.491C111.951 12.6567 111.254 11.9805 110.393 11.9805C109.532 11.9805 108.834 12.6567 108.834 13.491C108.834 14.3252 109.532 15.0015 110.393 15.0015Z" fill="url(#paint25_linear_632_37018)"/>
</g>
<defs>
<linearGradient id="paint0_linear_632_37018" x1="43.0374" y1="-4.21055" x2="110.322" y2="119.564" gradientUnits="userSpaceOnUse">
<stop stop-color="#02D7F8"/>
<stop offset="1" stop-color="#0876FC"/>
</linearGradient>
<linearGradient id="paint1_linear_632_37018" x1="43.0374" y1="-4.20977" x2="110.322" y2="119.565" gradientUnits="userSpaceOnUse">
<stop stop-color="#02D7F8"/>
<stop offset="1" stop-color="#0876FC"/>
</linearGradient>
<linearGradient id="paint2_linear_632_37018" x1="43.0374" y1="-4.21014" x2="110.322" y2="119.564" gradientUnits="userSpaceOnUse">
<stop stop-color="#02D7F8"/>
<stop offset="1" stop-color="#0876FC"/>
</linearGradient>
<linearGradient id="paint3_linear_632_37018" x1="43.0374" y1="-4.21014" x2="110.322" y2="119.564" gradientUnits="userSpaceOnUse">
<stop stop-color="#02D7F8"/>
<stop offset="1" stop-color="#0876FC"/>
</linearGradient>
<linearGradient id="paint4_linear_632_37018" x1="43.0374" y1="-4.20983" x2="110.322" y2="119.565" gradientUnits="userSpaceOnUse">
<stop stop-color="#02D7F8"/>
<stop offset="1" stop-color="#0876FC"/>
</linearGradient>
<linearGradient id="paint5_linear_632_37018" x1="43.0373" y1="-4.20984" x2="110.322" y2="119.565" gradientUnits="userSpaceOnUse">
<stop stop-color="#02D7F8"/>
<stop offset="1" stop-color="#0876FC"/>
</linearGradient>
<linearGradient id="paint6_linear_632_37018" x1="43.0374" y1="-4.21088" x2="110.322" y2="119.564" gradientUnits="userSpaceOnUse">
<stop stop-color="#02D7F8"/>
<stop offset="1" stop-color="#0876FC"/>
</linearGradient>
<linearGradient id="paint7_linear_632_37018" x1="43.0374" y1="-4.21098" x2="110.322" y2="119.564" gradientUnits="userSpaceOnUse">
<stop stop-color="#02D7F8"/>
<stop offset="1" stop-color="#0876FC"/>
</linearGradient>
<linearGradient id="paint8_linear_632_37018" x1="43.0374" y1="-4.21034" x2="110.322" y2="119.564" gradientUnits="userSpaceOnUse">
<stop stop-color="#02D7F8"/>
<stop offset="1" stop-color="#0876FC"/>
</linearGradient>
<linearGradient id="paint9_linear_632_37018" x1="43.0374" y1="-4.20939" x2="110.322" y2="119.565" gradientUnits="userSpaceOnUse">
<stop stop-color="#02D7F8"/>
<stop offset="1" stop-color="#0876FC"/>
</linearGradient>
<linearGradient id="paint10_linear_632_37018" x1="43.0374" y1="-4.20931" x2="110.322" y2="119.565" gradientUnits="userSpaceOnUse">
<stop stop-color="#02D7F8"/>
<stop offset="1" stop-color="#0876FC"/>
</linearGradient>
<linearGradient id="paint11_linear_632_37018" x1="43.0374" y1="-4.20989" x2="110.322" y2="119.565" gradientUnits="userSpaceOnUse">
<stop stop-color="#02D7F8"/>
<stop offset="1" stop-color="#0876FC"/>
</linearGradient>
<linearGradient id="paint12_linear_632_37018" x1="43.0374" y1="-4.20952" x2="110.322" y2="119.565" gradientUnits="userSpaceOnUse">
<stop stop-color="#02D7F8"/>
<stop offset="1" stop-color="#0876FC"/>
</linearGradient>
<linearGradient id="paint13_linear_632_37018" x1="43.0374" y1="-4.21053" x2="110.322" y2="119.564" gradientUnits="userSpaceOnUse">
<stop stop-color="#02D7F8"/>
<stop offset="1" stop-color="#0876FC"/>
</linearGradient>
<linearGradient id="paint14_linear_632_37018" x1="43.0374" y1="-4.21043" x2="110.322" y2="119.564" gradientUnits="userSpaceOnUse">
<stop stop-color="#02D7F8"/>
<stop offset="1" stop-color="#0876FC"/>
</linearGradient>
<linearGradient id="paint15_linear_632_37018" x1="43.0374" y1="-4.21024" x2="110.322" y2="119.564" gradientUnits="userSpaceOnUse">
<stop stop-color="#02D7F8"/>
<stop offset="1" stop-color="#0876FC"/>
</linearGradient>
<linearGradient id="paint16_linear_632_37018" x1="43.0374" y1="-4.2101" x2="110.322" y2="119.564" gradientUnits="userSpaceOnUse">
<stop stop-color="#02D7F8"/>
<stop offset="1" stop-color="#0876FC"/>
</linearGradient>
<linearGradient id="paint17_linear_632_37018" x1="43.0374" y1="-4.21056" x2="110.322" y2="119.564" gradientUnits="userSpaceOnUse">
<stop stop-color="#02D7F8"/>
<stop offset="1" stop-color="#0876FC"/>
</linearGradient>
<linearGradient id="paint18_linear_632_37018" x1="43.0374" y1="-4.21097" x2="110.322" y2="119.564" gradientUnits="userSpaceOnUse">
<stop stop-color="#02D7F8"/>
<stop offset="1" stop-color="#0876FC"/>
</linearGradient>
<linearGradient id="paint19_linear_632_37018" x1="43.0374" y1="-4.21017" x2="110.322" y2="119.564" gradientUnits="userSpaceOnUse">
<stop stop-color="#02D7F8"/>
<stop offset="1" stop-color="#0876FC"/>
</linearGradient>
<linearGradient id="paint20_linear_632_37018" x1="43.0374" y1="-4.21104" x2="110.322" y2="119.564" gradientUnits="userSpaceOnUse">
<stop stop-color="#02D7F8"/>
<stop offset="1" stop-color="#0876FC"/>
</linearGradient>
<linearGradient id="paint21_linear_632_37018" x1="43.0373" y1="-4.20955" x2="110.322" y2="119.565" gradientUnits="userSpaceOnUse">
<stop stop-color="#02D7F8"/>
<stop offset="1" stop-color="#0876FC"/>
</linearGradient>
<linearGradient id="paint22_linear_632_37018" x1="43.0374" y1="-4.21112" x2="110.322" y2="119.563" gradientUnits="userSpaceOnUse">
<stop stop-color="#02D7F8"/>
<stop offset="1" stop-color="#0876FC"/>
</linearGradient>
<linearGradient id="paint23_linear_632_37018" x1="43.0374" y1="-4.21027" x2="110.322" y2="119.564" gradientUnits="userSpaceOnUse">
<stop stop-color="#02D7F8"/>
<stop offset="1" stop-color="#0876FC"/>
</linearGradient>
<linearGradient id="paint24_linear_632_37018" x1="43.0374" y1="-4.20942" x2="110.322" y2="119.565" gradientUnits="userSpaceOnUse">
<stop stop-color="#02D7F8"/>
<stop offset="1" stop-color="#0876FC"/>
</linearGradient>
<linearGradient id="paint25_linear_632_37018" x1="43.0375" y1="-4.21049" x2="110.322" y2="119.564" gradientUnits="userSpaceOnUse">
<stop stop-color="#02D7F8"/>
<stop offset="1" stop-color="#0876FC"/>
</linearGradient>
<clipPath id="clip0_632_37018">
<rect width="138" height="138" fill="white"/>
</clipPath>
</defs>
</svg>
